#Comment line ignore any data following # character 
#Hierarchical Translation and Rotation (.htr) file 
[Header]	
#Header keywords are followed by a single value 
FileType HTR		#Single word string
DataType HTRS		#Translation followed by rotation and scale data
FileVersion 1		#integer
NumSegments 64		#integer
NumFrames 3		#integer
DataFrameRate 30		#integer, data frame rate in this file
EulerRotationOrder ZYX
CalibrationUnits mm
RotationUnits Degrees
GlobalAxisofGravity Y
BoneLengthAxis Y
ScaleFactor 1.00
[SegmentNames&Hierarchy]
#CHILD	PARENT
Pinger_Root GLOBAL
Pelvis Pinger_Root
L_Hip Pelvis
R_Hip Pelvis
Rear_Leg01 Pelvis
Spine1 Pelvis
L_Leg01 L_Hip
L_Leg02 L_Leg01
L_Leg03 L_Leg02
L_Foot L_Leg03
L_Toe1_01 L_Foot
L_Toe2_01 L_Foot
L_Toe3_01 L_Foot
planeAlignerLeft L_Foot
L_Toe1_02 L_Toe1_01
L_Toe1_03 L_Toe1_02
L_Toe2_02 L_Toe2_01
L_Toe2_03 L_Toe2_02
L_Toe3_02 L_Toe3_01
L_Toe3_03 L_Toe3_02
planeLockWeightLeft planeAlignerLeft
R_Leg01 R_Hip
R_Leg02 R_Leg01
R_Leg03 R_Leg02
R_Foot R_Leg03
planeAlignerRight R_Foot
R_Toe1_01 R_Foot
R_Toe2_01 R_Foot
R_Toe3_01 R_Foot
planeLockWeightRight planeAlignerRight
R_Toe1_02 R_Toe1_01
R_Toe1_03 R_Toe1_02
R_Toe2_02 R_Toe2_01
R_Toe2_03 R_Toe2_02
R_Toe3_02 R_Toe3_01
R_Toe3_03 R_Toe3_02
Rear_Leg02 Rear_Leg01
Rear_Leg03 Rear_Leg02
Rear_Leg04 Rear_Leg03
Rear_Foot Rear_Leg04
planeAlignerCenter Rear_Foot
Rear_Toe1_01 Rear_Foot
Rear_Toe2_01 Rear_Foot
Rear_Toe3_01 Rear_Foot
planeLockWeightCenter planeAlignerCenter
Rear_Toe1_02 Rear_Toe1_01
Rear_Toe1_03 Rear_Toe1_02
Rear_Toe2_02 Rear_Toe2_01
Rear_Toe2_03 Rear_Toe2_02
Rear_Toe3_02 Rear_Toe3_01
Rear_Toe3_03 Rear_Toe3_02
Back_Bone Spine1
Head Spine1
Motor_Bone Back_Bone
Ping_Mechanism Back_Bone
BN_LookIK Head
bottomMouth Head
L_Mouth01 Head
L_mouthFront Head
mouthGun Head
R_Mouth01 Head
R_mouthFront Head
TopMouth Head
weapon_bone Head
[BasePosition]
#SegmentName Tx, Ty, Tz, Rx, Ry, Rz, BoneLength
Pinger_Root 0.000000 0.000000 0.000000 -90.000000 0.000000 0.000000 10.000000 
Pelvis 0.000000 0.000000 0.000000 0.000000 0.000000 0.000000 10.000000 
L_Hip 0.000000 0.000000 0.000000 0.000000 0.000000 0.000000 10.000000 
R_Hip 0.000000 0.000000 0.000000 0.000000 0.000000 0.000000 10.000000 
Rear_Leg01 0.000000 0.000000 0.000000 0.000000 0.000000 0.000000 10.000000 
Spine1 0.000000 0.000000 0.000000 0.000000 0.000000 0.000000 10.000000 
L_Leg01 0.000000 0.000000 0.000000 0.000000 0.000000 0.000000 10.000000 
L_Leg02 0.000000 0.000000 0.000000 0.000000 0.000000 0.000000 10.000000 
L_Leg03 0.000000 0.000000 0.000000 0.000000 0.000000 0.000000 10.000000 
L_Foot 0.000000 0.000000 0.000000 0.000000 0.000000 0.000000 10.000000 
L_Toe1_01 0.000000 0.000000 0.000000 0.000000 0.000000 0.000000 10.000000 
L_Toe2_01 0.000000 0.000000 0.000000 0.000000 0.000000 0.000000 10.000000 
L_Toe3_01 0.000000 0.000000 0.000000 0.000000 0.000000 0.000000 10.000000 
planeAlignerLeft 0.000000 0.000000 0.000000 0.000000 0.000000 0.000000 10.000000 
L_Toe1_02 0.000000 0.000000 0.000000 0.000000 0.000000 0.000000 10.000000 
L_Toe1_03 0.000000 0.000000 0.000000 0.000000 0.000000 0.000000 10.000000 
L_Toe2_02 0.000000 0.000000 0.000000 0.000000 0.000000 0.000000 10.000000 
L_Toe2_03 0.000000 0.000000 0.000000 0.000000 0.000000 0.000000 10.000000 
L_Toe3_02 0.000000 0.000000 0.000000 0.000000 0.000000 0.000000 10.000000 
L_Toe3_03 0.000000 0.000000 0.000000 0.000000 0.000000 0.000000 10.000000 
planeLockWeightLeft 0.000000 0.000000 0.000000 0.000000 0.000000 0.000000 10.000000 
R_Leg01 0.000000 0.000000 0.000000 0.000000 0.000000 0.000000 10.000000 
R_Leg02 0.000000 0.000000 0.000000 0.000000 0.000000 0.000000 10.000000 
R_Leg03 0.000000 0.000000 0.000000 0.000000 0.000000 0.000000 10.000000 
R_Foot 0.000000 0.000000 0.000000 0.000000 0.000000 0.000000 10.000000 
planeAlignerRight 0.000000 0.000000 0.000000 0.000000 0.000000 0.000000 10.000000 
R_Toe1_01 0.000000 0.000000 0.000000 0.000000 0.000000 0.000000 10.000000 
R_Toe2_01 0.000000 0.000000 0.000000 0.000000 0.000000 0.000000 10.000000 
R_Toe3_01 0.000000 0.000000 0.000000 0.000000 0.000000 0.000000 10.000000 
planeLockWeightRight 0.000000 0.000000 0.000000 0.000000 0.000000 0.000000 10.000000 
R_Toe1_02 0.000000 0.000000 0.000000 0.000000 0.000000 0.000000 10.000000 
R_Toe1_03 0.000000 0.000000 0.000000 0.000000 0.000000 0.000000 10.000000 
R_Toe2_02 0.000000 0.000000 0.000000 0.000000 0.000000 0.000000 10.000000 
R_Toe2_03 0.000000 0.000000 0.000000 0.000000 0.000000 0.000000 10.000000 
R_Toe3_02 0.000000 0.000000 0.000000 0.000000 0.000000 0.000000 10.000000 
R_Toe3_03 0.000000 0.000000 0.000000 0.000000 0.000000 0.000000 10.000000 
Rear_Leg02 0.000000 0.000000 0.000000 0.000000 0.000000 0.000000 10.000000 
Rear_Leg03 0.000000 0.000000 0.000000 0.000000 0.000000 0.000000 10.000000 
Rear_Leg04 0.000000 0.000000 0.000000 0.000000 0.000000 0.000000 10.000000 
Rear_Foot 0.000000 0.000000 0.000000 0.000000 0.000000 0.000000 10.000000 
planeAlignerCenter 0.000000 0.000000 0.000000 0.000000 0.000000 0.000000 10.000000 
Rear_Toe1_01 0.000000 0.000000 0.000000 0.000000 0.000000 0.000000 10.000000 
Rear_Toe2_01 0.000000 0.000000 0.000000 0.000000 0.000000 0.000000 10.000000 
Rear_Toe3_01 0.000000 0.000000 0.000000 0.000000 0.000000 0.000000 10.000000 
planeLockWeightCenter 0.000000 0.000000 0.000000 0.000000 0.000000 0.000000 10.000000 
Rear_Toe1_02 0.000000 0.000000 0.000000 0.000000 0.000000 0.000000 10.000000 
Rear_Toe1_03 0.000000 0.000000 0.000000 0.000000 0.000000 0.000000 10.000000 
Rear_Toe2_02 0.000000 0.000000 0.000000 0.000000 0.000000 0.000000 10.000000 
Rear_Toe2_03 0.000000 0.000000 0.000000 0.000000 0.000000 0.000000 10.000000 
Rear_Toe3_02 0.000000 0.000000 0.000000 0.000000 0.000000 0.000000 10.000000 
Rear_Toe3_03 0.000000 0.000000 0.000000 0.000000 0.000000 0.000000 10.000000 
Back_Bone 0.000000 0.000000 0.000000 0.000000 0.000000 0.000000 10.000000 
Head 0.000000 0.000000 0.000000 0.000000 0.000000 0.000000 10.000000 
Motor_Bone 0.000000 0.000000 0.000000 0.000000 0.000000 0.000000 10.000000 
Ping_Mechanism 0.000000 0.000000 0.000000 0.000000 0.000000 0.000000 10.000000 
BN_LookIK 0.000000 0.000000 0.000000 0.000000 0.000000 0.000000 10.000000 
bottomMouth 0.000000 0.000000 0.000000 0.000000 0.000000 0.000000 10.000000 
L_Mouth01 0.000000 0.000000 0.000000 0.000000 0.000000 0.000000 10.000000 
L_mouthFront 0.000000 0.000000 0.000000 0.000000 0.000000 0.000000 10.000000 
mouthGun 0.000000 0.000000 0.000000 0.000000 0.000000 0.000000 10.000000 
R_Mouth01 0.000000 0.000000 0.000000 0.000000 0.000000 0.000000 10.000000 
R_mouthFront 0.000000 0.000000 0.000000 0.000000 0.000000 0.000000 10.000000 
TopMouth 0.000000 0.000000 0.000000 0.000000 0.000000 0.000000 10.000000 
weapon_bone 0.000000 0.000000 0.000000 0.000000 0.000000 0.000000 10.000000 
#Beginning of Data. Separated by tabs
#Fr	Tx	Ty	Tz	Rx	Ry	Rz	SF
[Pinger_Root]
1 0.000000 0.000000 0.000000 -0.000075 -0.000000 -0.000020 0.000000
2 0.000000 0.000000 0.000000 -0.000075 -0.000000 -0.000020 0.000000
3 0.000000 0.000000 0.000000 -0.000075 -0.000000 -0.000020 0.000000
[Pelvis]
1 72.227844 916.536743 4432.230957 -100.363472 -85.972015 92.748032 4526.580078
2 101.559944 370.194824 4137.755371 97.441849 -88.378639 -103.217484 4155.523926
3 64.775620 1022.396118 4494.891113 -114.752823 -86.031921 108.921761 4610.155762
[L_Hip]
1 5.766392 125.831482 872.656799 160.158691 -45.484905 122.312202 881.701050
2 5.766392 125.831482 872.656799 160.158691 -45.484894 122.312187 881.701050
3 5.766392 125.831482 872.656799 160.158691 -45.484894 122.312202 881.701050
[R_Hip]
1 5.765438 125.836372 -872.654907 38.087841 49.812687 125.703735 881.699829
2 5.765438 125.836372 -872.654907 38.087830 49.812672 125.703735 881.699829
3 5.765438 125.836372 -872.654907 38.087841 49.812687 125.703735 881.699829
[Rear_Leg01]
1 -192.298416 -925.602966 -0.001907 169.680527 1.958474 -159.661636 945.367432
2 -192.298416 -925.602966 -0.001907 171.360748 0.655488 -155.927231 945.367432
3 -192.298416 -925.602966 -0.001907 171.019669 1.415486 -151.579269 945.367432
[Spine1]
1 290.604584 5.007505 0.000477 7.265744 -0.619986 19.266817 290.647736
2 290.604584 5.007505 0.000477 8.080029 0.649405 14.314079 290.647736
3 290.604584 5.007505 0.000477 14.718244 0.937564 14.276731 290.647736
[L_Leg01]
1 761.932007 -0.002384 -0.069261 22.817181 -15.695028 -9.052058 761.932068
2 761.932007 -0.002384 -0.069261 21.986076 -20.262070 -1.027740 761.932068
3 761.932007 -0.002384 -0.069261 30.366188 -10.073149 -21.735971 761.932068
[L_Leg02]
1 1441.140503 -0.000954 -0.000715 2.603748 -0.185718 -129.018967 1441.140503
2 1441.140503 -0.000954 -0.000715 3.217746 -0.193519 -134.654999 1441.140503
3 1441.140503 -0.000954 -0.000715 2.786372 0.061704 -113.164139 1441.140503
[L_Leg03]
1 1686.963989 -0.000715 -0.000954 -0.029945 0.014719 118.138969 1686.963989
2 1686.963989 -0.000715 -0.000954 -0.029856 0.014898 118.823860 1686.963989
3 1686.963989 -0.000715 -0.000954 -0.055658 0.024976 125.169296 1686.963989
[L_Foot]
1 3041.570068 -30.715107 11.297464 1.950223 13.083426 55.475243 3041.746094
2 3041.570068 -30.715107 11.297464 3.140775 12.168010 47.176300 3041.746094
3 3041.570068 -30.715107 11.297464 0.314994 15.531396 46.412777 3041.746094
[L_Toe1_01]
1 -188.216690 -224.732346 -21.137953 93.719086 -6.862507 -171.970444 293.899567
2 -188.216690 -224.732346 -21.137953 92.444939 -8.209509 -160.288635 293.899567
3 -188.216690 -224.732346 -21.137953 93.568993 -7.700461 -169.894241 293.899567
[L_Toe2_01]
1 200.746536 -219.926590 148.838394 -90.023987 -26.311703 -52.677628 332.896027
2 200.746536 -219.926590 148.838394 -85.866409 -25.371857 -63.092957 332.896027
3 200.746536 -219.926590 148.838394 -86.739166 -28.290043 -59.257969 332.896027
[L_Toe3_01]
1 188.832520 -219.859131 -191.078659 -99.788055 13.839008 -67.673027 347.140900
2 188.832520 -219.859131 -191.078659 -100.216270 9.850925 -78.316994 347.140900
3 188.832520 -219.859131 -191.078659 -99.843262 11.993689 -74.575668 347.140900
[planeAlignerLeft]
1 0.812531 -811.448792 -0.314951 0.000000 -90.000000 -90.001900 811.449280
2 0.812531 -811.448792 -0.314951 0.000000 -90.000000 -90.001900 811.449280
3 0.812531 -811.448792 -0.314951 0.000000 -90.000000 -90.001900 811.449280
[L_Toe1_02]
1 413.761139 0.000477 0.000000 0.001384 -26.012932 0.001384 413.761139
2 413.761139 0.000477 0.000000 0.001425 -20.930927 0.001425 413.761139
3 413.761139 0.000477 0.000000 0.001661 0.070897 0.001661 413.761139
[L_Toe1_03]
1 464.317322 0.000358 -0.000089 0.003734 53.359097 0.003734 464.317322
2 464.317322 0.000358 -0.000089 0.000954 26.859671 -0.003150 464.317322
3 464.317322 0.000358 -0.000089 0.001673 -0.448396 -0.003292 464.317322
[L_Toe2_02]
1 342.235809 -0.000477 0.000238 0.001188 -72.402016 0.001188 342.235809
2 342.235809 -0.000477 0.000238 0.001201 -65.589905 0.001201 342.235809
3 342.235809 -0.000477 0.000238 0.001185 -74.282669 0.001185 342.235809
[L_Toe2_03]
1 420.210846 -0.000715 0.000000 0.029090 85.375511 0.029090 420.210846
2 420.210846 -0.000715 0.000000 -0.001629 70.553772 -0.005177 420.210846
3 420.210846 -0.000715 0.000000 -179.889816 89.410828 -179.886307 420.210846
[L_Toe3_02]
1 329.270111 0.000954 0.000000 0.001178 -80.480331 0.001178 329.270111
2 329.270111 0.000954 0.000000 0.001183 -75.259911 0.001183 329.270111
3 329.270111 0.000954 0.000000 0.001177 -81.116768 0.001177 329.270111
[L_Toe3_03]
1 439.137451 -0.001907 0.000954 -179.995956 78.605698 -179.992447 439.137451
2 439.137451 -0.001907 0.000954 0.027914 85.180534 0.027914 439.137451
3 439.137451 -0.001907 0.000954 -179.997025 76.071907 -179.993500 439.137451
[planeLockWeightLeft]
1 -0.000954 0.000238 -0.000305 -0.011826 -0.004376 0.005620 0.001029
2 -0.000954 0.000238 -0.000305 -0.011826 -0.004376 0.005620 0.001029
3 -0.000954 0.000238 -0.000305 -0.011826 -0.004376 0.005620 0.001029
[R_Leg01]
1 761.455627 -0.001907 -0.000358 120.155914 -8.176376 35.633469 761.455688
2 761.455627 -0.001907 -0.000358 121.877846 -16.599438 28.481794 761.455688
3 761.455627 -0.001907 -0.000358 128.591354 -2.227929 37.198750 761.455688
[R_Leg02]
1 1441.140625 0.000000 -0.000238 -1.339028 -0.199425 -118.901085 1441.140625
2 1441.140625 0.000000 -0.000238 -1.972398 -0.522535 -136.692184 1441.140625
3 1441.140625 0.000000 -0.000238 -1.152614 -0.141146 -113.058228 1441.140625
[R_Leg03]
1 1686.963989 0.000954 0.001431 0.075761 -0.043586 131.407837 1686.963989
2 1686.963989 0.000954 0.001431 0.093431 -0.054513 135.659943 1686.963989
3 1686.963989 0.000954 0.001431 0.074132 -0.038303 130.205765 1686.963989
[R_Foot]
1 3041.560059 -30.531288 -11.204481 -0.534461 -24.682068 55.345036 3041.734131
2 3041.560059 -30.531288 -11.204481 -0.875115 -23.676523 52.377975 3041.734131
3 3041.560059 -30.531288 -11.204481 -0.610233 -17.563858 55.326790 3041.734131
[planeAlignerRight]
1 -0.635147 -812.270569 -0.364304 0.000000 -89.960434 -90.005180 812.270874
2 -0.635147 -812.270569 -0.364304 0.000000 -89.960434 -90.005180 812.270874
3 -0.635147 -812.270569 -0.364304 0.000000 -89.960434 -90.005180 812.270874
[R_Toe1_01]
1 -188.383347 -224.864899 21.052242 76.763535 -0.414595 -172.728699 294.101532
2 -188.383347 -224.864899 21.052242 76.637627 1.780212 -163.548615 294.101532
3 -188.383347 -224.864899 21.052242 76.749870 1.335421 -168.419510 294.101532
[R_Toe2_01]
1 200.637817 -220.002121 -148.787384 -91.743256 32.873833 -59.182163 332.857574
2 200.637817 -220.002121 -148.787384 -94.969833 31.645863 -65.685532 332.857574
3 200.637817 -220.002121 -148.787384 -93.465218 34.087410 -61.576111 332.857574
[R_Toe3_01]
1 188.606735 -220.092957 191.126343 -73.225998 -8.456855 -73.756157 347.192566
2 188.606735 -220.092957 191.126343 -73.977272 -6.107196 -79.661346 347.192566
3 188.606735 -220.092957 191.126343 -73.637711 -8.185380 -75.683212 347.192566
[planeLockWeightRight]
1 -0.000477 0.000000 0.000000 -0.011823 -0.004379 -0.000027 0.000477
2 -0.000477 0.000000 0.000000 -0.011823 -0.004379 -0.000027 0.000477
3 -0.000477 0.000000 0.000000 -0.011823 -0.004379 -0.000027 0.000477
[R_Toe1_02]
1 413.762085 0.000477 -0.000119 0.001394 -24.659479 0.001394 413.762085
2 413.762085 0.000477 -0.000119 0.001385 -25.906347 0.001385 413.762085
3 413.762085 0.000477 -0.000119 0.001385 -25.913113 0.001385 413.762085
[R_Toe1_03]
1 464.317810 0.000000 0.001088 0.006625 69.593369 0.006625 464.317810
2 464.317810 0.000000 0.001088 0.004116 56.862526 0.004116 464.317810
3 464.317810 0.000000 0.001088 0.004180 57.386227 0.004180 464.317810
[R_Toe2_02]
1 342.234741 -0.000954 0.000238 0.001197 -67.215302 0.001197 342.234741
2 342.234741 -0.000954 0.000238 0.001214 -60.421124 0.001214 342.234741
3 342.234741 -0.000954 0.000238 0.001193 -69.318535 0.001193 342.234741
[R_Toe2_03]
1 420.210846 0.000715 -0.000268 0.008231 73.605896 0.008231 420.210846
2 420.210846 0.000715 -0.000268 -0.004139 61.503860 -0.000531 420.210846
3 420.210846 0.000715 -0.000268 0.011293 78.069855 0.011293 420.210846
[R_Toe3_02]
1 329.270355 -0.000477 -0.000954 0.001184 -74.518616 0.001184 329.270355
2 329.270355 -0.000477 -0.000954 -0.002366 -68.138222 -0.002366 329.270355
3 329.270355 -0.000477 -0.000954 0.001182 -76.262436 0.001182 329.270355
[R_Toe3_03]
1 439.137939 0.000238 0.001431 -0.011587 83.300278 -0.008085 439.137939
2 439.137939 0.000238 0.001431 0.006736 69.930977 0.006736 439.137939
3 439.137939 0.000238 0.001431 -0.031800 87.808136 -0.028303 439.137939
[Rear_Leg02]
1 1162.777710 -0.029802 0.005960 0.634897 -2.916484 -123.698227 1162.777710
2 1162.777710 -0.029802 0.005960 2.101144 -2.093139 -157.775742 1162.777710
3 1162.777710 -0.029802 0.005960 0.082487 -1.228890 -103.865173 1162.777710
[Rear_Leg03]
1 607.192505 -0.013351 -0.073195 0.006472 -0.002119 64.461884 607.192505
2 607.192505 -0.013351 -0.073195 0.010178 -0.005706 74.908592 607.192505
3 607.192505 -0.013351 -0.073195 0.006542 -0.001892 60.465031 607.192505
[Rear_Leg04]
1 995.874512 -0.020504 -0.011921 -0.040559 -0.015048 58.562256 995.874573
2 995.874512 -0.020504 -0.011921 -0.045684 -0.016773 83.095314 995.874573
3 995.874512 -0.020504 -0.011921 -0.039473 -0.017702 50.963802 995.874573
[Rear_Foot]
1 3096.176270 -0.067472 -0.041425 -143.807465 85.749458 48.945320 3096.176270
2 3096.176270 -0.067472 -0.041425 -148.491211 85.159813 41.285004 3096.176270
3 3096.176270 -0.067472 -0.041425 -157.139862 87.215332 35.143410 3096.176270
[planeAlignerCenter]
1 0.350077 0.966311 -838.790894 0.000009 0.000003 -179.999985 838.791565
2 0.350077 0.966311 -838.790894 0.000009 0.000003 -179.999985 838.791565
3 0.350077 0.966311 -838.790894 0.000009 0.000003 -179.999985 838.791565
[Rear_Toe1_01]
1 0.653352 83.966492 -371.173737 0.288091 41.914127 90.413170 380.553192
2 0.653352 83.966492 -371.173737 0.288091 41.914127 90.413170 380.553192
3 0.653352 83.966492 -371.173737 -1.078737 32.098415 89.821533 380.553192
[Rear_Toe2_01]
1 178.200760 -294.826019 -362.060547 -7.196267 34.406261 -66.271294 499.765686
2 178.200760 -294.826019 -362.060547 -7.196267 34.406261 -66.271294 499.765686
3 178.200760 -294.826019 -362.060547 -8.080334 27.424091 -67.504860 499.765686
[Rear_Toe3_01]
1 -153.359680 -308.780914 -362.060852 3.289418 33.518005 -112.540970 499.952881
2 -153.359680 -308.780914 -362.060852 3.289418 33.518005 -112.540970 499.952881
3 -153.359680 -308.780914 -362.060852 3.853740 26.528465 -110.590393 499.952881
[planeLockWeightCenter]
1 -0.000062 0.000238 0.000000 -0.011814 -0.004373 -0.000015 0.000246
2 -0.000062 0.000238 0.000000 -0.011814 -0.004373 -0.000015 0.000246
3 -0.000062 0.000238 0.000000 -0.011814 -0.004373 -0.000015 0.000246
[Rear_Toe1_02]
1 379.707825 0.194073 0.000477 -0.000242 -31.676744 0.006934 379.707855
2 379.707825 0.194073 0.000477 -0.000242 -31.676744 0.006934 379.707855
3 379.707825 0.194073 0.000477 -0.004347 -33.511135 0.003042 379.707855
[Rear_Toe1_03]
1 500.129700 0.165701 0.000119 -0.000103 51.902481 0.007295 500.129761
2 500.129700 0.165701 0.000119 -0.000103 51.902481 0.007295 500.129761
3 500.129700 0.165701 0.000119 0.012768 79.451927 0.012768 500.129761
[Rear_Toe2_02]
1 340.494507 0.000238 -0.000954 0.001192 -69.854523 0.001192 340.494507
2 340.494507 0.000238 -0.000954 0.001192 -69.854523 0.001192 340.494507
3 340.494507 0.000238 -0.000954 0.001206 -63.344700 0.001206 340.494507
[Rear_Toe2_03]
1 433.103577 0.000000 0.000238 0.006696 69.810326 0.006696 433.103546
2 433.103577 0.000000 0.000238 0.006696 69.810326 0.006696 433.103546
3 433.103577 0.000000 0.000238 0.004603 60.459297 0.004603 433.103546
[Rear_Toe3_02]
1 340.494141 -0.000358 -0.000477 0.008288 -67.274704 -0.009460 340.494171
2 340.494141 -0.000358 -0.000477 0.008288 -67.274704 -0.009460 340.494171
3 340.494141 -0.000358 -0.000477 -0.002399 -61.080334 -0.002399 340.494171
[Rear_Toe3_03]
1 433.103577 0.001431 -0.000238 -0.000972 65.958984 -0.004547 433.103546
2 433.103577 0.001431 -0.000238 -0.000972 65.958984 -0.004547 433.103546
3 433.103577 0.001431 -0.000238 -0.000234 57.515945 -0.003876 433.103546
[Back_Bone]
1 1312.175781 -701.934692 0.000954 1.476979 0.001718 -85.608841 1488.125488
2 1312.175781 -701.934692 0.000954 0.196957 0.810927 -109.094963 1488.125488
3 1312.175781 -701.934692 0.000954 -9.725733 2.320325 -80.859451 1488.125488
[Head]
1 1406.159424 809.709290 0.001431 0.000625 -1.475623 7.768025 1622.625488
2 1406.159424 809.709290 0.001431 0.000625 -1.475623 7.768025 1622.625488
3 1406.159424 809.709290 0.001431 0.392590 -1.440213 -5.490599 1622.625488
[Motor_Bone]
1 1158.364380 -417.834747 0.000477 -0.095385 0.076104 -105.915703 1231.419434
2 1158.364380 -417.834747 0.000477 -0.095385 0.076104 -105.915703 1231.419434
3 1158.364380 -417.834747 0.000477 -0.238014 7.493684 -94.221611 1231.419434
[Ping_Mechanism]
1 1233.747681 -441.768799 -0.318880 0.000103 -0.000053 82.120995 1310.455322
2 1207.325806 -434.174805 -1.766338 0.000103 -0.000053 82.120995 1283.022461
3 1239.314575 -398.110962 -3.776321 0.000103 -0.000053 82.120995 1301.693970
[BN_LookIK]
1 193.241119 1380.371704 -0.002861 0.000000 89.965736 -31.038179 1393.832153
2 193.241119 1380.371704 -0.002861 0.000000 89.965736 -31.038179 1393.832153
3 193.241119 1380.371704 -0.002861 0.000000 89.965736 -31.038179 1393.832153
[bottomMouth]
1 -435.092926 615.759399 -0.000954 -0.000022 0.000016 73.527184 753.966492
2 -435.092926 615.759399 -0.000954 -0.000022 0.000016 73.527184 753.966492
3 -435.092926 615.759399 -0.000954 -0.000022 0.000016 73.527184 753.966492
[L_Mouth01]
1 554.440979 7.658243 838.222046 150.204178 23.759130 109.605339 1005.027161
2 554.440979 7.658243 838.222046 150.204178 23.759130 109.605339 1005.027161
3 554.440979 7.658243 838.222046 150.204178 23.759130 109.605339 1005.027161
[L_mouthFront]
1 551.629089 934.514771 339.150421 0.000081 2.804060 79.119301 1136.941284
2 551.629089 934.514771 339.150421 0.000081 2.804060 79.119301 1136.941284
3 551.629089 934.514771 339.150421 0.000081 2.804060 79.119301 1136.941284
[mouthGun]
1 55.332661 1627.420898 0.000000 0.000023 0.000009 -11.038128 1628.361328
2 55.332661 1627.420898 0.000000 0.000023 0.000009 -11.038128 1628.361328
3 55.332661 1627.420898 0.000000 0.000023 0.000009 -11.038128 1628.361328
[R_Mouth01]
1 554.442383 7.659197 -838.223938 29.795891 -23.759109 109.605331 1005.029541
2 554.442383 7.659197 -838.223938 29.795891 -23.759109 109.605331 1005.029541
3 554.442383 7.659197 -838.223938 29.795891 -23.759109 109.605331 1005.029541
[R_mouthFront]
1 551.629089 934.514282 -339.151367 0.000029 -2.803930 79.119133 1136.941162
2 551.629089 934.514282 -339.151367 0.000029 -2.803930 79.119133 1136.941162
3 551.629089 934.514282 -339.151367 0.000029 -2.803930 79.119133 1136.941162
[TopMouth]
1 461.269867 -56.106091 -0.008583 -0.000059 -0.000268 92.025169 464.669525
2 461.269867 -56.106091 -0.008583 -0.000059 -0.000268 92.025169 464.669525
3 461.269867 -56.106091 -0.008583 -0.000059 -0.000268 92.025169 464.669525
[weapon_bone]
1 -987.239868 1448.372803 0.001431 0.000000 89.965736 -31.038221 1752.833740
2 -987.239868 1448.372803 0.001431 0.000000 89.965736 -31.038221 1752.833740
3 -987.239868 1448.372803 0.001431 0.000000 89.965736 -31.038221 1752.833740
